<svg width="60" height="60" viewBox="0 0 60 60" fill="none" xmlns="http://www.w3.org/2000/svg">
<g filter="url(#filter0_b_760_129)">
<circle cx="30" cy="30" r="30" fill="white" fill-opacity="0.3"/>
<circle cx="30" cy="30" r="29.5" stroke="white"/>
</g>
<path d="M14.6464 29.6464C14.4512 29.8417 14.4512 30.1583 14.6464 30.3536L17.8284 33.5355C18.0237 33.7308 18.3403 33.7308 18.5355 33.5355C18.7308 33.3403 18.7308 33.0237 18.5355 32.8284L15.7071 30L18.5355 27.1716C18.7308 26.9763 18.7308 26.6597 18.5355 26.4645C18.3403 26.2692 18.0237 26.2692 17.8284 26.4645L14.6464 29.6464ZM45 29.5L15 29.5L15 30.5L45 30.5L45 29.5Z" fill="white"/>
<defs>
<filter id="filter0_b_760_129" x="-4" y="-4" width="68" height="68" filterUnits="userSpaceOnUse" color-interpolation-filters="sRGB">
<feFlood flood-opacity="0" result="BackgroundImageFix"/>
<feGaussianBlur in="BackgroundImageFix" stdDeviation="2"/>
<feComposite in2="SourceAlpha" operator="in" result="effect1_backgroundBlur_760_129"/>
<feBlend mode="normal" in="SourceGraphic" in2="effect1_backgroundBlur_760_129" result="shape"/>
</filter>
</defs>
</svg>
