<svg width="51" height="20" viewBox="0 0 51 20" fill="none" xmlns="http://www.w3.org/2000/svg">
<path d="M51 20H49.2222V15.7975C49.2215 15.1442 48.9444 14.5178 48.4516 14.0558C47.9588 13.5938 47.2907 13.334 46.5938 13.3333H39.4062C38.7093 13.334 38.0412 13.5938 37.5484 14.0558C37.0556 14.5178 36.7785 15.1442 36.7778 15.7975V20H35V15.7975C35.0014 14.7023 35.4661 13.6524 36.2921 12.878C37.1181 12.1036 38.2381 11.668 39.4062 11.6667H46.5938C47.7619 11.668 48.8819 12.1036 49.7079 12.878C50.5339 13.6524 50.9986 14.7023 51 15.7975V20Z" fill="black"/>
<path d="M43.0003 10C41.9455 10 40.9143 9.70676 40.0373 9.15735C39.1602 8.60794 38.4766 7.82705 38.073 6.91342C37.6693 5.99979 37.5637 4.99446 37.7695 4.02455C37.9753 3.05465 38.4832 2.16373 39.2291 1.46447C39.975 0.765206 40.9253 0.289002 41.9598 0.0960758C42.9944 -0.0968503 44.0668 0.00216643 45.0413 0.380605C46.0158 0.759043 46.8488 1.39991 47.4348 2.22215C48.0209 3.0444 48.3337 4.0111 48.3337 5C48.3322 6.32568 47.7699 7.59668 46.77 8.53407C45.7701 9.47147 44.4144 9.99868 43.0003 10ZM43.0003 1.66667C42.2971 1.66667 41.6097 1.86217 41.025 2.22844C40.4403 2.59471 39.9845 3.1153 39.7154 3.72439C39.4463 4.33348 39.3759 5.0037 39.5131 5.6503C39.6503 6.29691 39.9889 6.89085 40.4862 7.35703C40.9834 7.8232 41.617 8.14067 42.3067 8.26929C42.9964 8.3979 43.7113 8.33189 44.361 8.0796C45.0107 7.82731 45.566 7.40007 45.9567 6.8519C46.3474 6.30374 46.5559 5.65927 46.5559 5C46.5559 4.11595 46.1813 3.2681 45.5145 2.64298C44.8477 2.01786 43.9433 1.66667 43.0003 1.66667Z" fill="black"/>
<path d="M14.5815 1C13.6435 1.01486 12.726 1.2816 11.9215 1.77326C11.1171 2.26493 10.4543 2.96412 10 3.80023C9.54572 2.96412 8.8829 2.26493 8.07847 1.77326C7.27405 1.2816 6.35651 1.01486 5.41852 1C3.92324 1.06618 2.51444 1.73252 1.49991 2.85344C0.485388 3.97436 -0.0524034 5.45875 0.00403263 6.98231C0.00403263 12.7313 9.13035 19.3712 9.51853 19.6529L10 20L10.4815 19.6529C10.8696 19.3729 19.996 12.7313 19.996 6.98231C20.0524 5.45875 19.5146 3.97436 18.5001 2.85344C17.4856 1.73252 16.0768 1.06618 14.5815 1ZM10 17.9109C7.29026 15.8489 1.67003 10.783 1.67003 6.98231C1.61308 5.90865 1.97521 4.85561 2.67742 4.05285C3.37964 3.25009 4.36497 2.76275 5.41852 2.69711C6.47206 2.76275 7.45739 3.25009 8.15961 4.05285C8.86182 4.85561 9.27601 5.90865 9.21907 6.98231H10.833C10.7761 5.90865 11.1382 4.85561 11.8404 4.05285C12.5426 3.25009 13.5279 2.76275 14.5815 2.69711C15.635 2.76275 16.6204 3.25009 17.3226 4.05285C18.0248 4.85561 18.3869 5.90865 18.33 6.98231C18.33 10.7847 12.7097 15.8489 10 17.9109Z" fill="black"/>
</svg>
