<svg width="40" height="40" viewBox="0 0 40 40" fill="none" xmlns="http://www.w3.org/2000/svg">
<g filter="url(#filter0_b_760_53)">
<circle cx="20" cy="20" r="20" fill="white" fill-opacity="0.3"/>
<circle cx="20" cy="20" r="19.5" stroke="white"/>
</g>
<path d="M24.5815 12C23.6435 12.0125 22.726 12.237 21.9215 12.6507C21.1171 13.0645 20.4543 13.6529 20 14.3565C19.5457 13.6529 18.8829 13.0645 18.0785 12.6507C17.2741 12.237 16.3565 12.0125 15.4185 12C13.9232 12.0557 12.5144 12.6164 11.4999 13.5598C10.4854 14.5031 9.9476 15.7522 10.004 17.0344C10.004 21.8724 19.1304 27.4602 19.5185 27.6973L20 27.9894L20.4815 27.6973C20.8696 27.4617 29.996 21.8724 29.996 17.0344C30.0524 15.7522 29.5146 14.5031 28.5001 13.5598C27.4856 12.6164 26.0768 12.0557 24.5815 12ZM20 26.2313C17.2903 24.496 11.67 20.2328 11.67 17.0344C11.6131 16.1309 11.9752 15.2447 12.6774 14.5691C13.3796 13.8936 14.365 13.4834 15.4185 13.4282C16.4721 13.4834 17.4574 13.8936 18.1596 14.5691C18.8618 15.2447 19.276 16.1309 19.2191 17.0344H20.833C20.7761 16.1309 21.1382 15.2447 21.8404 14.5691C22.5426 13.8936 23.5279 13.4834 24.5815 13.4282C25.635 13.4834 26.6204 13.8936 27.3226 14.5691C28.0248 15.2447 28.3869 16.1309 28.33 17.0344C28.33 20.2343 22.7097 24.496 20 26.2313Z" fill="white"/>
<defs>
<filter id="filter0_b_760_53" x="-4" y="-4" width="48" height="48" filterUnits="userSpaceOnUse" color-interpolation-filters="sRGB">
<feFlood flood-opacity="0" result="BackgroundImageFix"/>
<feGaussianBlur in="BackgroundImageFix" stdDeviation="2"/>
<feComposite in2="SourceAlpha" operator="in" result="effect1_backgroundBlur_760_53"/>
<feBlend mode="normal" in="SourceGraphic" in2="effect1_backgroundBlur_760_53" result="shape"/>
</filter>
</defs>
</svg>
