<svg width="67" height="10" viewBox="0 0 67 10" fill="none" xmlns="http://www.w3.org/2000/svg">
<path d="M8.61602 7.9H4.06602L3.19802 10H0.874023L5.24202 0.199997H7.48202L11.864 10H9.48402L8.61602 7.9ZM7.90202 6.178L6.34802 2.426L4.79402 6.178H7.90202Z" fill="black"/>
<path d="M19.1248 10L17.2348 7.27H17.1228H15.1488V10H12.8808V0.199997H17.1228C17.9908 0.199997 18.7421 0.344664 19.3768 0.633997C20.0208 0.923331 20.5154 1.334 20.8608 1.866C21.2061 2.398 21.3788 3.028 21.3788 3.756C21.3788 4.484 21.2014 5.114 20.8468 5.646C20.5014 6.16866 20.0068 6.57 19.3628 6.85L21.5608 10H19.1248ZM19.0828 3.756C19.0828 3.20533 18.9054 2.78533 18.5508 2.496C18.1961 2.19733 17.6781 2.048 16.9968 2.048H15.1488V5.464H16.9968C17.6781 5.464 18.1961 5.31466 18.5508 5.016C18.9054 4.71733 19.0828 4.29733 19.0828 3.756Z" fill="black"/>
<path d="M25.069 2.048H21.933V0.199997H30.473V2.048H27.337V10H25.069V2.048Z" fill="black"/>
<path d="M35.6581 0.199997H37.9261V8.152H42.8401V10H35.6581V0.199997Z" fill="black"/>
<path d="M44.1073 0.199997H46.3753V10H44.1073V0.199997Z" fill="black"/>
<path d="M58.0684 0.199997L53.8264 10H51.5864L47.3584 0.199997H49.8084L52.7904 7.2L55.8144 0.199997H58.0684Z" fill="black"/>
<path d="M66.4746 8.18V10H58.8866V0.199997H66.2926V2.02H61.1406V4.148H65.6906V5.912H61.1406V8.18H66.4746Z" fill="black"/>
</svg>
